<svg width="30" height="30" viewBox="0 0 30 30" fill="none" xmlns="http://www.w3.org/2000/svg">
<path d="M0.573047 26.6601C-0.191016 27.4242 -0.191016 28.6628 0.573047 29.4269C1.33711 30.191 2.57593 30.191 3.33999 29.4269L0.573047 26.6601ZM16.3834 16.3834C17.1475 15.6193 17.1475 14.3807 16.3834 13.6166C15.6193 12.8525 14.3807 12.8525 13.6166 13.6166L16.3834 16.3834ZM13.6166 13.6166C12.8525 14.3807 12.8525 15.6193 13.6166 16.3834C14.3807 17.1475 15.6193 17.1475 16.3834 16.3834L13.6166 13.6166ZM29.4269 3.33999C30.191 2.57593 30.191 1.33711 29.4269 0.573047C28.6628 -0.191016 27.4242 -0.191016 26.6601 0.573047L29.4269 3.33999ZM16.3834 13.6166C15.6193 12.8525 14.3807 12.8525 13.6166 13.6166C12.8525 14.3807 12.8525 15.6193 13.6166 16.3834L16.3834 13.6166ZM26.6601 29.4269C27.4242 30.191 28.6628 30.191 29.4269 29.4269C30.191 28.6628 30.191 27.4242 29.4269 26.6601L26.6601 29.4269ZM13.6166 16.3834C14.3807 17.1475 15.6193 17.1475 16.3834 16.3834C17.1475 15.6193 17.1475 14.3807 16.3834 13.6166L13.6166 16.3834ZM3.33999 0.573047C2.57593 -0.191016 1.33711 -0.191016 0.573047 0.573047C-0.191016 1.33711 -0.191016 2.57593 0.573047 3.33999L3.33999 0.573047ZM3.33999 29.4269L16.3834 16.3834L13.6166 13.6166L0.573047 26.6601L3.33999 29.4269ZM16.3834 16.3834L29.4269 3.33999L26.6601 0.573047L13.6166 13.6166L16.3834 16.3834ZM13.6166 16.3834L26.6601 29.4269L29.4269 26.6601L16.3834 13.6166L13.6166 16.3834ZM16.3834 13.6166L3.33999 0.573047L0.573047 3.33999L13.6166 16.3834L16.3834 13.6166Z" fill="#DDDDDD"/>
</svg>
